<svg id="Layer_1" xmlns="http://www.w3.org/2000/svg" viewBox="0 0 90 40"><style>.st0{fill:#fff}.st1{fill:#58c9e5}.st2{fill:#ffc907}.st3{fill:#faa61a}.st4{fill:#94c94b}</style><path class="st0" d="M28.8 15c3.9 0 7.5 2.7 7.5 7.8v6.3c0 3.1-.4 5.6-2.2 7.2-1.8 1.5-4.4 2.1-6.5 2.1-2.1 0-4.3-.5-5.8-1.3l1-3.8c1 .6 2.8 1.2 4.7 1.2 2.4 0 4.2-1.3 4.2-4.2v-1.1h-.1c-1 1.3-2.5 2.1-4.3 2.1-4 0-6.8-3.2-6.8-7.9 0-5.2 3.4-8.5 7.3-8.5 2 .1 1 .1 1 .1zm2.7 6.9c0-.3 0-.7-.1-.9-.4-1.3-1.3-2.2-2.7-2.2-1.8 0-3.3 1.6-3.3 4.6 0 2.4 1.2 4.3 3.3 4.3 1.3 0 2.3-.9 2.6-2 .1-.4.2-.9.2-1.3v-2.5zM38.6 20.7c0-2.4-.1-3.9-.1-5.3h4.3l.2 3c.8-2.3 2.8-3.3 4.3-3.3.5 0 .7 0 1.1.1v4.7c-.4-.1-.8-.1-1.3-.1-1.8 0-3.1 1-3.4 2.5-.1.3-.1.7-.1 1.1v8.2h-5V20.7zM58.5 31.5l-.3-1.6h-.1c-1.1 1.3-2.7 2-4.6 2-3.3 0-5.2-2.4-5.2-4.9 0-4.2 3.7-6.2 9.4-6.2v-.2c0-.9-.5-2.1-2.9-2.1-1.6 0-3.4.6-4.4 1.2l-.9-3.2c1.1-.6 3.3-1.4 6.2-1.4 5.4 0 7.1 3.2 7.1 6.9v5.6c0 1.5.1 3 .2 3.9h-4.5zm-.6-7.6c-2.6 0-4.7.6-4.7 2.5 0 1.3.9 1.9 2 1.9 1.2 0 2.3-.8 2.6-1.8.1-.3.1-.6.1-.9v-1.7zM74.8 21.3c0-5.4 4.2-5.7 4.2-5.7l.2 2h.1c.7-1 2.3-2.6 5-2.6 3.3 0 5.8 2.2 5.8 6.9v9.5h-5v-8.9c0-2.1-.7-3.5-2.5-3.5-1.4 0-2.2 1-2.5 1.9-.1.3-.2.8-.2 1.2v9.3h-5V21.3z"/><path class="st1" d="M13.5 15.3c-2-2-2.2-5.5 0-7.3 2.3-2 2.9-1.5 9.2-1.9-.4 6.2.1 7.2-1.9 9.3-2 1.9-5.3 1.9-7.3-.1z"/><path class="st0" d="M15.7 9.3v1h.6v.7h-.6v2c0 .2 0 .3.1.3 0 .1.1.1.2.1h.4l.1.8c-.1 0-.2.1-.3.1h-.4c-.4 0-.6-.1-.8-.3-.2-.2-.3-.5-.3-1v-2h-.5v-.8h.5v-1h1zM18.1 10.7c.1-.2.2-.3.4-.4.2-.1.3-.1.5-.1.4 0 .7.1.9.4.2.3.3.7.3 1.3v2.3h-1.1v-2.3c0-.3 0-.6-.1-.7-.1-.1-.2-.2-.4-.2-.1 0-.2 0-.3.1-.1 0-.2.1-.2.2v3H17V8.5h1.1v2.2zM9.8 17.1c-2 0-3.5.6-4.5 1.7h-.1c.5-2.2 2-4.2 5.4-4.9-.5-1.3-.5-2.7-.2-3.9-2.6.4-4.7 1.4-6.5 3C1.6 15.1.1 18.5.1 22.5c0 5.1 2.8 9.3 8.5 9.3 4.6 0 7.9-3.5 7.9-7.7 0-4.5-3.1-7-6.7-7zm-1.3 11c-2.3 0-3.4-2-3.5-4.3 0-.6.1-1 .2-1.2.5-1.1 1.6-1.9 3-1.9 2.1 0 3.2 1.7 3.2 3.7 0 2.1-1.1 3.7-2.9 3.7z"/><path class="st2" d="M72.3 4.7c1.7-.9 1.9-1.1 1.9-1.1s-.4 1.4-.5 1.9c-.3 1.6-.9 2.2-1.8 2.7-.4.3-1.7.9-2.2 2.4.5-1.8.5-2.4.6-2.8.2-1.7 1.4-2.7 2-3.1zM69.4 9.2V7.3v-.4c-1-1.3-.8-2.4-.8-2.4S67 4.5 67 6.1c0 1 2.2 1.8 2 5 .4-1 .4-1.9.4-1.9z"/><path class="st3" d="M72.5 3.7c-.2-.7-.9-1.1-1-2.3 0 0-2.1 1.8-2.1 2.2 0 .9.8.9.5 2.5.3-1.6 1.1-2.4 2.6-2.4z"/><g><path class="st4" d="M77.2 12.6c-3.6 1.2-4.6 3.7-4.6 8.7v10.6H71V21.3c0-5.1 1.1-7.5 6.2-8.7zM64.6 6.9l.9.6c-.3-.3-.6-.5-.9-.6zM67.8 15c0-4-.8-6.4-3.2-8.1 1.6 1.6 2.4 4.4 2.3 6.5-.9-2.2-2.6-3.5-4.6-4 2.9 1.2 4.4 4.5 4.5 9.2-.7-3.4-3.2-6-7.2-6.2 4.2 1.2 5.8 4.6 5.8 9.6v10h2.4V18.3 15z"/></g><path class="st2" d="M75.7 8.1c-3 1.2-5.5 4.3-5.5 9.3v14.5h-1.6V17.4c0-5.7 3.8-8.4 7.1-9.3z"/></svg>